<svg xmlns="http://www.w3.org/2000/svg" width="111.067" height="123.891" viewBox="0 0 111.067 123.891">
  <path id="approval" d="M52.024,119.051a4.839,4.839,0,0,1-4.839,4.839H19.358A19.379,19.379,0,0,1,0,104.533V19.358A19.379,19.379,0,0,1,19.358,0h59.5A19.38,19.38,0,0,1,98.215,19.358v51.3a4.839,4.839,0,0,1-9.679,0v-51.3a9.69,9.69,0,0,0-9.679-9.679h-59.5a9.69,9.69,0,0,0-9.679,9.679v85.175a9.69,9.69,0,0,0,9.679,9.679H47.185a4.839,4.839,0,0,1,4.839,4.839ZM109.043,78.82a4.84,4.84,0,0,0-6.752,1.117L78.437,113.258a2.765,2.765,0,0,1-3.979.206L59.015,98.635a4.839,4.839,0,0,0-6.7,6.981L67.77,120.46a12.483,12.483,0,0,0,8.585,3.43q.41,0,.821-.027a12.473,12.473,0,0,0,8.872-4.622c.056-.069.111-.141.163-.214l23.951-33.456a4.838,4.838,0,0,0-1.118-6.752ZM74.018,29.037H24.171a4.839,4.839,0,1,0,0,9.679H74.018a4.839,4.839,0,0,0,0-9.679Zm4.839,24.2a4.84,4.84,0,0,0-4.839-4.839H24.171a4.839,4.839,0,1,0,0,9.679H74.018A4.84,4.84,0,0,0,78.857,53.234ZM24.171,67.753a4.839,4.839,0,1,0,0,9.679H54.444a4.839,4.839,0,0,0,0-9.679Zm0,0" opacity="0.07"/>
</svg>
