<svg xmlns="http://www.w3.org/2000/svg" width="13.969" height="13.993" viewBox="0 0 13.969 13.993">
  <path id="Icon_feather-phone-call" data-name="Icon feather-phone-call" d="M10.842,3.873a2.966,2.966,0,0,1,2.343,2.343M10.842,1.5a5.338,5.338,0,0,1,4.716,4.71m-.593,4.733v1.779a1.186,1.186,0,0,1-1.293,1.186,11.739,11.739,0,0,1-5.119-1.821A11.567,11.567,0,0,1,4.994,8.529,11.739,11.739,0,0,1,3.173,3.386a1.186,1.186,0,0,1,1.18-1.293H6.133a1.186,1.186,0,0,1,1.186,1.02A7.616,7.616,0,0,0,7.734,4.78a1.186,1.186,0,0,1-.267,1.252l-.753.753a9.491,9.491,0,0,0,3.559,3.559l.753-.753a1.186,1.186,0,0,1,1.252-.267,7.616,7.616,0,0,0,1.667.415A1.186,1.186,0,0,1,14.965,10.943Z" transform="translate(-2.417 -0.672)" fill="none" stroke="#04a29b" stroke-linecap="round" stroke-linejoin="round" stroke-width="1.5"/>
</svg>
