<svg id="login" xmlns="http://www.w3.org/2000/svg" width="28.678" height="24.762" viewBox="0 0 28.678 24.762">
  <path id="Path_32" data-name="Path 32" d="M26.345,51.147A12.374,12.374,0,0,0,14.62,34.82h-.562A12.38,12.38,0,0,0,2.333,51.147H0v8.435H28.678V51.147ZM3.374,47.191A10.7,10.7,0,0,1,14.058,36.507h.562a10.69,10.69,0,0,1,9.927,14.641H21.962a6.743,6.743,0,0,0-4.375-5.1,4.607,4.607,0,1,0-6.428-.016,6.733,6.733,0,0,0-2.953,2.025l-.018.022A6.752,6.752,0,0,0,6.72,51.147H4.131a10.6,10.6,0,0,1-.757-3.956Zm11.007-1.523a2.92,2.92,0,1,1,2.92-2.92A2.923,2.923,0,0,1,14.381,45.668Zm.959,1.687a5.051,5.051,0,0,1,4.894,3.793H8.45A5.061,5.061,0,0,1,9.476,49.17l.018-.022a5.046,5.046,0,0,1,3.863-1.794h1.982ZM26.991,57.9H1.687V52.834h25.3Z" transform="translate(0 -34.82)"/>
  <path id="Path_33" data-name="Path 33" d="M240,385.18h1.687v1.687H240Z" transform="translate(-226.504 -365.479)"/>
  <path id="Path_34" data-name="Path 34" d="M165,385.18h1.687v1.687H165Z" transform="translate(-155.722 -365.479)"/>
  <path id="Path_35" data-name="Path 35" d="M90,385.18h1.687v1.687H90Z" transform="translate(-84.939 -365.479)"/>
  <path id="Path_36" data-name="Path 36" d="M315,385.18h1.687v1.687H315Z" transform="translate(-297.287 -365.479)"/>
  <path id="Path_37" data-name="Path 37" d="M390,385.18h1.687v1.687H390Z" transform="translate(-368.07 -365.479)"/>
</svg>
