<svg xmlns="http://www.w3.org/2000/svg" width="256.51" height="82.7" viewBox="0 0 256.51 82.7">
  <g id="Group_404" data-name="Group 404" transform="translate(-858 -151)">
    <g id="Layer_x0020_1" transform="translate(858 151)">
      <g id="_1907536747536" transform="translate(0 0)">
        <path id="Path_49" data-name="Path 49" d="M8.846,31.856v-9.1h4.815c3.517,0,5.017,1.752,5.017,4.551s-1.5,4.551-5.017,4.551H8.846Zm18.82-4.551c0-6.668-4.45-11.685-13.337-11.685H.01v36.3H8.859V38.89h5.483c9.252,0,13.337-5.584,13.337-11.584Z" transform="translate(-0.01 4.077)" fill="#2e2367"/>
        <path id="Path_50" data-name="Path 50" d="M52.16,51.914h9.366L48.391,15.61H38.155L25.02,51.914h9.252L36.441,45.5H49.992l2.168,6.416ZM47.71,38.678H38.76l4.45-13.286Z" transform="translate(6.506 4.075)" fill="#2e2367"/>
        <path id="Path_51" data-name="Path 51" d="M56.87,22.694h9.618v29.22h8.849V22.694h9.618V15.61H56.87Z" transform="translate(14.805 4.075)" fill="#2e2367"/>
        <path id="Path_52" data-name="Path 52" d="M83.98,51.914h8.836V15.61H83.98Z" transform="translate(21.869 4.075)" fill="#2e2367"/>
        <path id="Path_53" data-name="Path 53" d="M174.62,51.914h9.366l-13.135-36.3H160.615l-13.135,36.3h9.252L158.9,45.5h13.551Zm-4.45-13.236h-8.95l4.45-13.286Z" transform="translate(38.414 4.075)" fill="#2e2367"/>
        <path id="Path_54" data-name="Path 54" d="M200.076,27.406c0,2.849-1.55,4.551-4.866,4.551h-5.483v-9h5.483c3.315,0,4.866,1.752,4.866,4.45ZM180.89,15.62v36.3h8.849v-13.7h2.118l7.551,13.7h9.984l-8.383-14.37a10.568,10.568,0,0,0,8.068-10.5c0-6.3-4.45-11.433-13.337-11.433H180.9Z" transform="translate(47.119 4.077)" fill="#2e2367"/>
        <path id="Path_55" data-name="Path 55" d="M117.6,47.12a19.336,19.336,0,0,0,13.425-5.32,17.61,17.61,0,0,0,5.534-12.769q0-.624-.038-1.172a15.091,15.091,0,0,0-5.37-10.74,19,19,0,0,0-12.391-4.185c-.555,0-1.109.013-1.639.05l-.151-2.231c.618-.038,1.223-.063,1.79-.063A21.251,21.251,0,0,1,132.588,15.4a17.353,17.353,0,0,1,6.151,12.3c.025.454.05.895.05,1.324a19.848,19.848,0,0,1-6.227,14.383A21.587,21.587,0,0,1,117.6,49.351V47.107Z" transform="translate(30.464 2.793)" fill="#03a39b"/>
        <path id="Path_56" data-name="Path 56" d="M153.889,52.478v3.5H97.87v-3.5a3.5,3.5,0,0,1,3.5-3.5v-3.5h-3.5v-3.5h21.013v3.5h-3.5v3.5h10.5a17.509,17.509,0,0,0,0-35.018h-2.761l-2.345,6.454-13.261-4.828,4.828-13.261A3.535,3.535,0,0,1,116.867.2l6.631,2.42a3.485,3.485,0,0,1,2.143,4.324h.252A24.453,24.453,0,0,1,142.96,48.961H150.4a3.5,3.5,0,0,1,3.5,3.5h0Z" transform="translate(25.488 0.006)" fill="#2e2367"/>
        <path id="Path_57" data-name="Path 57" d="M105.749,22.843l6.631,2.42a3.529,3.529,0,0,0,4.525-2.118l1.21-3.328L104.854,14.99l-1.21,3.328a3.533,3.533,0,0,0,2.105,4.525Z" transform="translate(26.936 3.913)" fill="#03a39b"/>
        <path id="Path_58" data-name="Path 58" d="M100.73,31.39h13.891l-.013,2.408H100.73Z" transform="translate(26.233 8.186)" fill="#03a39b"/>
      </g>
    </g>
    <path id="Path_59" data-name="Path 59" d="M4.639,53.079H0V68.748H4.639c5.219,0,8.294-2.937,8.294-7.8,0-4.9-3.076-7.866-8.294-7.866ZM1.563,67.449V54.39H4.639c4.437,0,6.694,2.508,6.694,6.567,0,4.034-2.269,6.5-6.694,6.5H1.563Zm18,1.3h1.563V53.079H19.564V68.748Zm19.312,0h1.664l-5.7-15.467H33.077l-5.71,15.467h1.664l1.361-3.719h7.122l1.361,3.719Zm-1.84-5.017H30.846l3.088-8.471,3.088,8.471ZM53.826,52.9a7.654,7.654,0,0,0-7.752,8,7.647,7.647,0,0,0,7.752,8,7.507,7.507,0,0,0,7.614-7.324V60.441H53.2v1.273h6.593A5.8,5.8,0,0,1,53.826,67.5c-3.479,0-6.139-2.534-6.139-6.593s2.672-6.567,6.139-6.567a5.533,5.533,0,0,1,5.294,3.315h1.84A7.276,7.276,0,0,0,53.838,52.9Zm24.467.176v13.16L69.62,53.079H68.057V68.748H69.62V55.575l8.673,13.173h1.563V53.079Zm23.661,7.815a7.756,7.756,0,1,0-15.5,0,7.756,7.756,0,1,0,15.5,0Zm-13.891,0c0-4.1,2.672-6.605,6.139-6.605s6.139,2.509,6.139,6.605-2.672,6.631-6.139,6.631-6.139-2.534-6.139-6.631Zm30.3,3.719c0-5.824-8.61-3.051-8.61-7.576,0-1.815,1.525-2.824,3.366-2.8a3.2,3.2,0,0,1,3.4,2.471h1.7c-.265-2.156-2.067-3.807-5.042-3.807-3.025,0-5.017,1.765-5.017,4.185,0,5.9,8.61,2.975,8.61,7.6,0,1.614-1.273,2.887-3.454,2.887-2.534,0-3.492-1.563-3.63-2.874h-1.664c.088,2.4,2.156,4.185,5.294,4.185,3.315,0,5.042-2.156,5.042-4.286Zm5.647-10.236h4.374v14.37h1.563V54.377H134.3v-1.3H124.013v1.3Zm16.513,14.37h1.563V53.079h-1.563Zm8.156-7.841c0,4.7,3.315,7.979,7.664,7.979a7.249,7.249,0,0,0,7.21-4.7h-1.84a5.473,5.473,0,0,1-5.383,3.34c-3.429,0-6.051-2.534-6.051-6.605,0-4.1,2.622-6.631,6.051-6.631a5.461,5.461,0,0,1,5.383,3.378h1.84a7.236,7.236,0,0,0-7.21-4.752c-4.349,0-7.664,3.29-7.664,8Z" transform="translate(904.641 164.788)" fill="#03a39b"/>
  </g>
</svg>
