<svg id="steps" xmlns="http://www.w3.org/2000/svg" width="29.565" height="20" viewBox="0 0 29.565 20">
  <path id="Path_27" data-name="Path 27" d="M26.379,262.5a3.193,3.193,0,0,0-3.135,2.609H17.919a3.188,3.188,0,0,0-6.269,0H6.325a3.189,3.189,0,1,0-.165,1.739h5.656a3.187,3.187,0,0,0,5.938,0H23.41a3.188,3.188,0,1,0,2.969-4.348ZM3.19,267.138a1.449,1.449,0,1,1,1.449-1.449A1.451,1.451,0,0,1,3.19,267.138Zm11.594,0a1.449,1.449,0,1,1,1.449-1.449A1.451,1.451,0,0,1,14.785,267.138Zm11.594,0a1.449,1.449,0,1,1,1.449-1.449A1.451,1.451,0,0,1,26.379,267.138Z" transform="translate(-0.002 -252.065)"/>
  <path id="Path_28" data-name="Path 28" d="M20.217,89.457H18.478V82.5H15v1.739h1.739v5.217H15V91.2h5.217Z" transform="translate(-14.131 -82.5)"/>
  <path id="Path_29" data-name="Path 29" d="M215.217,89.457h-3.478v-.95l3.478-2.029V82.5H210v1.739h3.478v1.24L210,87.508V91.2h5.217Z" transform="translate(-197.826 -82.5)"/>
  <path id="Path_30" data-name="Path 30" d="M210,397.5h5.217v1.739H210Z" transform="translate(-197.826 -379.239)"/>
  <path id="Path_31" data-name="Path 31" d="M410.217,82.5H405v1.739h3.478v1.739H405.87v1.739h2.609v1.739H405V91.2h5.217Z" transform="translate(-381.522 -82.5)"/>
</svg>
