<svg xmlns="http://www.w3.org/2000/svg" width="134.154" height="124.391" viewBox="0 0 134.154 124.391">
  <g id="pending" transform="translate(-0.001 -0.5)" opacity="0.07">
    <path id="Path_65" data-name="Path 65" d="M109.312,53.145V10.4A9.913,9.913,0,0,0,99.41.5H9.9A9.913,9.913,0,0,0,0,10.4V99.91a9.912,9.912,0,0,0,9.9,9.9H67.544a36.875,36.875,0,1,0,41.768-56.666ZM44.933,8.56H64.38V30.808l-8.228-3.288a4.038,4.038,0,0,0-2.991,0l-8.228,3.288ZM9.9,101.751A1.843,1.843,0,0,1,8.061,99.91V10.4A1.843,1.843,0,0,1,9.9,8.56H36.874v28.2A4.029,4.029,0,0,0,42.4,40.5l12.258-4.9,12.259,4.9a4.029,4.029,0,0,0,5.525-3.742V8.56H99.411a1.843,1.843,0,0,1,1.841,1.841V51.341a36.881,36.881,0,0,0-38.2,50.41Zm87.37,15.079a28.822,28.822,0,1,1,28.822-28.822A28.855,28.855,0,0,1,97.272,116.83Zm0,0"/>
    <path id="Path_66" data-name="Path 66" d="M373.8,278.033H362.892V267.12a4.03,4.03,0,1,0-8.06,0v14.943a4.03,4.03,0,0,0,4.03,4.03H373.8a4.03,4.03,0,1,0,0-8.06Zm0,0" transform="translate(-261.858 -193.786)"/>
  </g>
</svg>
