<svg xmlns="http://www.w3.org/2000/svg" width="25.612" height="27.971" viewBox="0 0 25.612 27.971">
  <path id="_6" data-name="6" d="M48.915,28.826,47.12,25.413a.778.778,0,0,0-.688-.418h-4.41v-2.18H45.7a.776.776,0,1,0,0-1.552H36.793a.776.776,0,1,0,0,1.552H40.47v2.18H31.711a8.722,8.722,0,0,1-.765-3.589,8.865,8.865,0,0,1,6.276-8.461,3.8,3.8,0,0,0,.5.182v3.022a.775.775,0,0,0,.215,1.519h6.623a.775.775,0,0,0,.215-1.519V5.523a3.526,3.526,0,0,0-7.052.006V7.318a3.031,3.031,0,0,0-1.624,1.1A13.521,13.521,0,0,0,26.773,25h-.809a.774.774,0,0,0-.688.418l-1.795,3.413a.789.789,0,0,0,.022.765.781.781,0,0,0,.666.374H48.227a.779.779,0,0,0,.688-1.145ZM39.27,5.529a1.976,1.976,0,0,1,3.953,0V16.115H39.275V13.131a3.009,3.009,0,0,0,0-5.813V5.529Zm-.776,3.237a1.453,1.453,0,1,1-1.453,1.453A1.455,1.455,0,0,1,38.494,8.766Zm-3.006,1.5a2.97,2.97,0,0,0,.429,1.5,10.426,10.426,0,0,0-6.523,9.645A10.3,10.3,0,0,0,30.032,25H28.392a11.954,11.954,0,0,1,7.1-14.737ZM25.452,28.413l.98-1.861H45.964l.98,1.861Z" transform="translate(-23.393 -2)" fill="#04a29b"/>
</svg>
