<svg xmlns="http://www.w3.org/2000/svg" width="29.758" height="29.758" viewBox="0 0 29.758 29.758">
  <g id="management" transform="translate(0)">
    <path id="Path_60" data-name="Path 60" d="M29.758,17.371V12.387l-3.943-.657a11.289,11.289,0,0,0-.977-2.356L27.162,6.12,23.638,2.6,20.384,4.92a11.284,11.284,0,0,0-2.356-.977L17.371,0H12.387L11.73,3.943a11.289,11.289,0,0,0-2.356.977L6.12,2.6,2.6,6.12,4.92,9.374a11.284,11.284,0,0,0-.977,2.356L0,12.387v4.984l3.943.657a11.289,11.289,0,0,0,.977,2.356L2.6,23.638,6.12,27.162l3.254-2.324a11.288,11.288,0,0,0,2.356.977l.657,3.943h4.984l.657-3.943a11.283,11.283,0,0,0,2.356-.977l3.254,2.324,3.524-3.524-2.324-3.254a11.284,11.284,0,0,0,.977-2.356Zm-4.882,6.078-1.427,1.427-2.985-2.132a10.33,10.33,0,0,1-3.4,1.515l-.57.132-.6,3.617H13.87l-.6-3.617a10.3,10.3,0,0,1-3.476-1.337l-.5-.31L6.309,24.876,4.882,23.449l2.132-2.985a10.333,10.333,0,0,1-1.515-3.4l-.132-.57-3.617-.6V13.87l3.617-.6A10.3,10.3,0,0,1,6.705,9.791l.31-.5L4.882,6.309,6.309,4.882,9.295,7.015A10.333,10.333,0,0,1,12.7,5.5l.57-.132.6-3.617h2.018l.6,3.617a10.3,10.3,0,0,1,3.476,1.337l.5.31,2.985-2.132,1.427,1.427L22.743,9.295a10.334,10.334,0,0,1,1.515,3.4l.132.57,3.617.6v2.018l-3.617.6a10.3,10.3,0,0,1-1.337,3.476l-.31.5Z"/>
    <path id="Path_61" data-name="Path 61" d="M134.939,127.5a7.439,7.439,0,1,0,7.439,7.439A7.448,7.448,0,0,0,134.939,127.5Zm-2.554,12.522a2.625,2.625,0,0,1,5.108,0A5.678,5.678,0,0,1,132.385,140.022Zm1.241-5.082a1.313,1.313,0,1,1,1.313,1.313A1.314,1.314,0,0,1,133.627,134.939Zm5.351,4a4.4,4.4,0,0,0-1.709-2.017,3.063,3.063,0,1,0-4.658,0,4.4,4.4,0,0,0-1.709,2.017,5.689,5.689,0,1,1,8.076,0Z" transform="translate(-120.061 -120.061)"/>
  </g>
</svg>
