<svg xmlns="http://www.w3.org/2000/svg" width="13.143" height="16.174" viewBox="0 0 13.143 16.174">
  <g id="trash" transform="translate(-48)">
    <path id="Path_108" data-name="Path 108" d="M59.878,2.022H57.1V1.516A1.518,1.518,0,0,0,55.582,0H53.56a1.518,1.518,0,0,0-1.516,1.516v.505h-2.78A1.265,1.265,0,0,0,48,3.285V5.054a.505.505,0,0,0,.505.505h.276l.437,9.17a1.515,1.515,0,0,0,1.515,1.444h7.676a1.514,1.514,0,0,0,1.515-1.444l.437-9.17h.276a.505.505,0,0,0,.505-.505V3.285A1.265,1.265,0,0,0,59.878,2.022Zm-6.824-.505a.506.506,0,0,1,.505-.505h2.022a.506.506,0,0,1,.505.505v.505H53.054ZM49.011,3.285a.253.253,0,0,1,.253-.253H59.878a.253.253,0,0,1,.253.253V4.549H49.011Zm9.9,11.4a.5.5,0,0,1-.5.481H50.733a.5.5,0,0,1-.5-.481L49.794,5.56h9.554Z" fill="#e85343"/>
    <path id="Path_109" data-name="Path 109" d="M240.505,215.582a.505.505,0,0,0,.505-.505v-6.571a.505.505,0,0,0-1.011,0v6.571A.505.505,0,0,0,240.505,215.582Z" transform="translate(-185.935 -201.429)" fill="#e85343"/>
    <path id="Path_110" data-name="Path 110" d="M320.505,215.582a.505.505,0,0,0,.505-.505v-6.571a.505.505,0,1,0-1.011,0v6.571A.505.505,0,0,0,320.505,215.582Z" transform="translate(-263.407 -201.429)" fill="#e85343"/>
    <path id="Path_111" data-name="Path 111" d="M160.505,215.582a.505.505,0,0,0,.505-.505v-6.571a.505.505,0,0,0-1.011,0v6.571A.505.505,0,0,0,160.505,215.582Z" transform="translate(-108.462 -201.429)" fill="#e85343"/>
  </g>
</svg>
